<?xml version="1.0" standalone="no"?>
<!DOCTYPE svg PUBLIC "-//W3C//DTD SVG 20010904//EN"
 "http://www.w3.org/TR/2001/REC-SVG-20010904/DTD/svg10.dtd">
<svg version="1.0" xmlns="http://www.w3.org/2000/svg"
 width="651.000000pt" height="651.000000pt" viewBox="0 0 651.000000 651.000000"
 preserveAspectRatio="xMidYMid meet">
<metadata>
Created by potrace 1.14, written by Peter Selinger 2001-2017
</metadata>
<g transform="translate(0.000000,651.000000) scale(0.100000,-0.100000)"
fill="#000000" stroke="none">
<path d="M1567 6044 c-4 -4 -7 -18 -7 -31 0 -107 -107 -350 -255 -577 -40 -63
-85 -136 -98 -163 -36 -70 -133 -212 -177 -258 -21 -22 -61 -69 -90 -105 -28
-36 -91 -108 -139 -160 -48 -52 -105 -120 -127 -150 -21 -30 -46 -64 -55 -75
-68 -81 -118 -137 -233 -255 -158 -163 -226 -242 -226 -262 0 -8 11 -20 24
-26 25 -11 21 -14 310 196 43 31 91 66 107 77 15 11 123 90 239 175 117 85
310 225 429 310 119 85 275 198 346 249 72 52 159 115 194 140 35 25 119 87
187 136 67 50 176 128 240 175 64 47 232 170 373 273 141 103 276 202 300 220
24 18 49 40 55 49 23 38 -2 43 -277 49 -566 14 -1112 20 -1120 13z"/>
<path d="M3950 6010 l-605 -5 -100 -67 c-118 -79 -213 -148 -720 -523 -270
-200 -572 -419 -638 -464 -59 -39 -77 -57 -75 -72 4 -25 -5 -25 1332 -33 566
-3 1032 -9 1035 -12 8 -8 -106 -110 -205 -183 -20 -15 -42 -40 -48 -54 -6 -15
-99 -116 -206 -224 -254 -257 -1137 -1159 -1676 -1713 -612 -629 -1058 -1083
-1482 -1509 -223 -224 -272 -279 -272 -302 0 -59 -80 -452 -129 -631 -28 -105
-28 -146 2 -152 12 -3 171 -10 352 -17 182 -6 368 -13 415 -14 286 -11 805
-20 1772 -31 l537 -6 33 23 c18 12 166 120 328 238 162 119 397 290 521 381
308 224 526 391 602 458 35 32 78 65 95 74 32 17 41 41 22 53 -5 3 -548 6
-1206 5 l-1197 0 43 47 c24 27 141 147 259 268 189 194 365 376 771 800 199
208 337 351 531 550 108 110 231 238 275 285 135 144 364 384 620 650 66 69
207 217 314 330 106 113 246 259 309 325 105 109 292 307 491 519 42 45 108
119 148 166 39 47 79 91 87 98 9 7 15 30 15 53 0 42 28 228 57 379 8 47 18
138 21 204 l5 118 -914 -3 c-503 -2 -1186 -6 -1519 -9z m1088 -66 c8 -2 11
-12 7 -23 -11 -35 13 -66 63 -79 26 -7 57 -15 68 -18 19 -5 23 0 33 46 6 28
11 60 11 70 0 28 68 28 104 -1 14 -11 31 -17 37 -13 6 3 21 1 34 -6 20 -11 26
-9 46 9 13 12 33 24 44 27 30 7 854 -2 862 -10 4 -4 -3 -50 -16 -104 -12 -53
-31 -144 -41 -201 -16 -91 -28 -120 -51 -121 -14 0 -67 31 -84 50 -21 23 -51
26 -71 6 -7 -8 -19 -16 -25 -18 -16 -5 25 -84 55 -103 23 -15 54 -11 67 8 11
16 26 0 34 -35 6 -29 8 -31 15 -13 6 12 7 -11 4 -60 l-6 -80 -99 -97 c-55 -54
-103 -98 -108 -98 -23 0 -72 38 -86 66 -21 45 -42 60 -49 36 -7 -22 -56 -90
-56 -77 0 5 -7 0 -15 -11 -8 -10 -15 -31 -15 -46 0 -17 -5 -28 -14 -28 -8 0
-17 -8 -20 -17 -8 -21 3 -123 14 -123 4 0 10 -9 13 -19 3 -13 -6 -30 -27 -50
l-33 -32 -11 25 c-10 22 -15 24 -41 16 -16 -4 -39 -18 -51 -30 -18 -18 -21
-31 -18 -80 l3 -58 -220 -228 c-121 -126 -233 -242 -249 -259 -16 -16 -113
-118 -215 -225 -101 -107 -194 -204 -206 -215 -12 -11 -104 -107 -205 -213
-110 -116 -188 -191 -196 -188 -14 5 -28 -10 -29 -30 0 -15 -38 -64 -48 -64
-5 0 -18 -11 -29 -25 -25 -32 -35 -32 -68 5 l-28 31 -62 -14 c-34 -8 -66 -19
-72 -25 -5 -5 -12 -28 -15 -51 -3 -22 -10 -41 -15 -41 -13 0 -30 -52 -24 -75
3 -12 15 -32 26 -45 11 -13 20 -27 20 -33 0 -10 -78 -99 -91 -105 -4 -2 -3 15
2 38 12 53 3 84 -33 120 -35 35 -77 40 -85 10 -7 -26 -27 -25 -46 3 -22 32
-34 14 -47 -71 -13 -79 -1 -138 26 -128 7 3 18 -2 24 -10 20 -23 40 -16 55 20
15 34 15 34 45 20 16 -9 32 -19 35 -23 8 -14 -33 -43 -60 -43 -20 0 -25 -5
-25 -27 0 -37 -96 -143 -109 -121 -5 8 -7 26 -4 41 12 63 -28 80 -89 37 -26
-18 -41 -47 -17 -32 7 4 -11 -23 -39 -59 -66 -84 -72 -108 -38 -140 28 -27 33
-43 14 -50 -24 -8 -49 6 -64 34 -12 25 -18 28 -47 22 -17 -3 -36 -9 -41 -14
-5 -4 -14 -6 -20 -3 -6 2 -19 -15 -29 -39 -20 -49 -16 -115 10 -155 11 -18 12
-26 2 -38 -16 -19 -46 -9 -84 27 -17 16 -34 29 -37 29 -3 0 -20 -19 -37 -41
-20 -28 -32 -58 -36 -94 -7 -56 0 -99 16 -90 15 10 10 -12 -6 -25 -11 -10 -18
-9 -30 4 -10 10 -30 15 -50 13 -41 -3 -60 -33 -45 -72 8 -21 7 -25 -10 -25
-17 0 -20 -7 -20 -42 -1 -39 -7 -50 -70 -118 l-70 -75 6 42 c6 36 3 47 -21 75
-15 17 -31 43 -36 56 -7 18 -14 22 -32 16 -12 -3 -23 -11 -25 -15 -2 -5 -11
-9 -20 -9 -24 0 -59 -41 -93 -107 -42 -82 -47 -129 -18 -175 31 -48 56 -51 99
-14 28 26 31 27 15 6 -11 -14 -24 -30 -30 -35 -5 -6 -46 -51 -89 -100 -113
-128 -195 -203 -215 -198 -10 2 -28 -4 -40 -15 -22 -17 -23 -21 -11 -56 16
-49 48 -70 85 -56 38 15 55 6 55 -27 0 -31 33 -91 53 -97 6 -3 29 -7 50 -10
33 -4 37 -2 37 18 0 12 5 27 11 33 6 6 10 32 8 57 l-4 46 87 0 88 0 -20 -32
c-11 -18 -20 -39 -20 -45 0 -17 32 -53 41 -47 4 2 5 -14 2 -36 -4 -28 0 -47
12 -67 16 -24 19 -25 30 -10 19 27 33 20 44 -21 13 -48 35 -77 49 -68 7 4 12
16 12 27 0 11 7 22 15 25 8 4 15 14 15 23 0 9 7 25 15 35 8 11 15 26 15 35 0
8 8 23 17 33 41 45 -2 145 -57 135 -14 -3 -43 -2 -65 3 -25 5 27 7 135 6 165
-1 175 -2 175 -20 0 -11 6 -21 13 -24 6 -2 12 -10 12 -17 0 -8 14 -30 31 -50
24 -27 36 -34 55 -29 18 5 24 2 24 -10 0 -13 9 -9 40 16 22 18 40 40 40 49 0
9 7 22 15 29 8 7 15 23 15 36 0 22 4 24 48 24 41 0 51 -4 69 -28 11 -15 23
-37 27 -49 4 -12 13 -24 21 -27 8 -3 15 -14 15 -24 0 -10 10 -28 23 -40 21
-20 23 -20 43 -4 11 9 29 35 39 57 10 22 21 42 25 45 4 3 15 20 24 38 14 27
22 32 52 32 31 0 34 -2 24 -19 -14 -28 -13 -51 4 -51 11 0 12 -8 5 -40 -7 -32
-5 -47 9 -74 l19 -34 31 20 c18 11 32 24 32 29 0 5 6 9 13 9 26 0 48 36 44 71
-8 59 -16 69 -56 69 -20 0 -43 5 -51 10 -10 7 21 9 95 9 61 -1 103 -3 94 -6
-22 -6 -21 -71 2 -104 10 -15 19 -32 19 -39 0 -7 15 -3 38 11 52 31 63 42 65
70 1 13 9 34 17 47 14 20 23 22 104 22 84 0 88 -1 74 -17 -33 -40 -39 -71 -22
-113 18 -45 32 -50 60 -19 21 23 24 93 5 112 -6 6 -11 17 -11 24 0 10 31 13
137 13 l137 0 -125 -84 c-68 -46 -153 -106 -189 -134 -36 -27 -75 -54 -88 -61
-21 -11 -23 -9 -28 18 -4 17 -12 36 -20 42 -18 15 -60 -17 -71 -56 -6 -19 -16
-31 -28 -31 -11 -1 -23 -3 -27 -4 -5 -1 -11 -3 -15 -4 -22 -4 -43 -25 -62 -63
-11 -23 -21 -45 -21 -48 0 -11 47 -4 68 11 12 8 22 10 22 5 0 -6 -3 -11 -7
-11 -5 0 -26 -16 -48 -36 -65 -57 -303 -234 -314 -234 -6 0 -11 7 -11 16 0 8
-5 12 -11 9 -5 -4 -18 2 -27 13 -9 10 -27 22 -39 26 -20 7 -23 4 -23 -23 0
-24 -7 -34 -30 -46 -16 -9 -30 -22 -30 -31 0 -26 20 -54 38 -54 12 -1 8 -9
-18 -30 -33 -29 -52 -38 -48 -22 1 4 -6 24 -15 45 -11 25 -22 37 -36 37 -12 0
-21 -4 -21 -10 0 -5 -9 -10 -20 -10 -11 0 -20 -4 -20 -10 0 -5 -9 -19 -21 -31
-30 -30 -37 -57 -27 -107 7 -38 5 -47 -10 -58 -9 -6 -52 -39 -96 -73 l-79 -61
-91 1 c-99 1 -141 8 -142 24 -1 23 -27 75 -36 75 -15 0 -68 -60 -68 -76 0 -9
-11 -14 -30 -14 -16 0 -30 4 -30 9 0 16 -49 19 -55 3 -4 -12 -20 -14 -88 -8
-45 3 -146 6 -224 7 -121 1 -143 3 -143 16 0 12 -7 14 -33 8 -17 -4 -60 -9
-94 -12 -61 -5 -63 -4 -73 22 -5 14 -10 39 -10 55 0 32 -24 53 -71 64 -19 4
-29 1 -33 -9 -8 -22 -32 -18 -49 9 -9 13 -30 31 -47 39 -27 14 -31 14 -42 -2
-7 -10 -17 -19 -23 -19 -5 -1 -11 -10 -13 -21 -2 -12 -14 -22 -33 -26 -27 -6
-29 -9 -29 -56 l0 -49 -197 2 c-199 3 -222 8 -190 40 25 25 27 70 5 135 -11
35 -25 63 -29 63 -5 0 -9 12 -9 26 0 44 -17 65 -48 57 -36 -9 -51 -31 -52 -74
0 -45 -26 -73 -42 -45 -9 17 -11 16 -27 -8 -10 -14 -21 -23 -24 -19 -4 3 -7
-12 -7 -35 0 -42 17 -92 31 -92 5 0 13 -9 19 -20 10 -19 8 -20 -75 -20 l-85 0
16 25 c26 40 9 117 -38 167 -10 10 -18 22 -18 27 0 5 -11 11 -25 13 -14 3 -25
1 -25 -5 0 -6 -13 1 -28 16 -16 15 -31 25 -34 22 -3 -4 -17 5 -31 19 -40 40
-54 32 -47 -28 1 -10 -3 -15 -9 -12 -6 4 -13 -4 -17 -19 -3 -14 -10 -25 -14
-25 -14 0 -35 -111 -23 -118 5 -4 12 -16 15 -27 3 -11 9 -28 13 -37 6 -16 1
-18 -49 -18 l-57 0 7 35 c7 38 -14 75 -43 75 -13 0 -17 11 -14 41 1 8 -7 23
-17 33 -19 16 -21 15 -46 -14 -40 -48 -43 -74 -21 -147 7 -22 5 -23 -41 -23
-29 0 -54 6 -65 16 -16 15 -20 15 -41 0 -16 -12 -46 -16 -105 -16 -46 0 -83 3
-83 8 0 18 42 158 51 168 5 6 5 15 1 19 -4 5 -2 5 4 2 6 -3 9 -20 6 -37 -8
-52 7 -117 26 -117 9 0 22 4 28 9 6 4 18 6 25 3 15 -6 49 41 49 67 0 7 9 19
20 26 13 8 20 23 20 43 0 33 -37 119 -51 119 -5 0 -17 20 -28 45 -11 25 -25
45 -30 45 -15 0 -13 70 4 165 8 44 14 99 15 122 0 40 6 50 87 135 168 180 427
438 432 430 20 -25 81 41 81 87 0 9 16 32 35 51 26 25 35 30 35 17 0 -18 21
-43 59 -69 20 -14 21 -20 12 -53 -11 -42 -1 -75 24 -75 8 0 15 -3 15 -7 0 -5
19 -8 43 -9 38 -1 45 3 55 26 19 43 -1 88 -43 96 -19 3 -38 3 -43 0 -5 -3 -18
1 -29 9 -14 10 -19 22 -16 40 3 14 10 25 15 25 6 0 8 25 6 60 -2 49 0 60 14
63 10 3 22 -1 29 -9 18 -22 26 -17 39 21 10 30 15 35 33 29 12 -4 24 -11 25
-15 2 -5 8 -6 13 -3 18 11 39 -18 39 -52 0 -18 6 -36 13 -41 12 -8 89 -32 116
-36 32 -5 58 157 26 169 -8 3 -17 14 -20 25 -4 10 -12 19 -20 19 -18 0 -55 48
-55 71 0 10 -10 25 -21 33 -21 14 -20 16 51 88 63 64 71 69 65 44 -8 -36 3
-86 19 -86 18 0 58 -137 47 -159 -17 -31 59 -118 93 -105 8 3 25 -1 36 -9 20
-14 24 -12 52 14 29 25 30 31 20 54 -15 32 -16 115 -2 115 26 0 2 168 -28 198
-12 12 -22 27 -22 33 0 5 -4 7 -10 4 -5 -3 -10 -1 -10 4 0 6 -4 10 -9 8 -5 -1
-16 6 -24 17 -15 21 -57 15 -57 -9 0 -12 -50 -28 -60 -19 -2 3 95 104 215 224
183 183 221 217 227 201 10 -27 26 -35 44 -20 8 6 16 10 18 8 1 -2 9 -14 18
-26 l15 -23 29 31 c23 24 29 39 29 75 0 25 -5 48 -11 52 -15 10 -25 45 -16 57
4 6 17 18 29 29 22 19 22 18 21 -10 -1 -30 20 -92 37 -109 35 -35 43 -37 82
-16 48 25 80 59 89 96 4 15 15 30 25 32 11 3 19 9 19 14 0 5 6 9 13 9 19 0 57
75 57 114 0 20 -4 36 -10 36 -5 0 -10 5 -10 11 0 7 -14 25 -30 41 -35 33 -36
38 -11 69 l19 23 21 -47 c12 -26 28 -47 35 -47 8 0 17 -6 19 -12 9 -21 27 12
27 48 0 20 6 34 16 38 12 5 14 14 9 47 -7 39 -6 40 13 30 12 -6 28 -21 36 -33
8 -11 28 -23 44 -24 22 -3 32 3 45 25 9 16 17 36 17 45 0 24 -41 107 -50 101
-4 -3 -10 5 -14 18 -5 18 18 46 147 172 140 138 180 170 83 67 l-41 -43 33
-29 c17 -17 32 -36 32 -43 0 -8 3 -17 8 -21 4 -4 7 -38 7 -76 0 -38 3 -71 7
-75 13 -14 63 12 77 40 11 23 11 34 1 66 -16 47 -3 85 32 98 30 11 52 72 44
117 -4 19 -11 34 -15 34 -5 0 -12 11 -15 24 -3 14 -13 32 -22 41 -16 15 -14
19 24 58 22 23 108 111 190 196 l150 155 27 -18 c27 -18 28 -18 39 0 15 27 36
86 36 104 0 9 8 22 18 31 9 8 116 117 236 242 120 125 223 227 228 227 5 0 7
-9 3 -19 -6 -21 24 -93 36 -85 4 2 10 0 14 -6 10 -16 30 -12 69 15 21 14 45
24 54 23 11 -2 20 9 29 35 7 20 22 47 33 59 26 28 18 88 -20 144 l-27 41 32
39 c31 37 33 37 40 16 6 -21 40 -42 66 -42 18 0 88 77 94 103 7 25 -11 74 -23
63 -3 -3 -15 1 -28 9 -19 12 -24 12 -34 0 -9 -11 -17 -12 -33 -4 -11 6 -39 9
-63 6 -24 -2 -41 -1 -38 4 3 5 20 9 38 9 25 0 35 6 44 26 7 14 16 23 21 19 5
-3 13 0 16 6 4 6 18 8 33 4 20 -5 31 0 54 26 43 46 61 99 35 99 -9 0 -12 9 -9
29 2 16 -1 32 -7 35 -6 4 -11 16 -11 27 0 11 -7 27 -15 35 -12 13 -17 13 -30
2 -8 -7 -21 -19 -30 -26 -8 -7 -15 -24 -15 -37 0 -20 -5 -25 -24 -25 -52 0
-82 -20 -106 -69 -12 -27 -20 -53 -16 -59 3 -5 1 -24 -5 -42 -9 -23 -9 -34 0
-43 21 -21 11 -27 -39 -27 -27 0 -50 5 -50 10 0 6 3 10 8 10 4 0 18 16 31 35
22 33 36 115 19 115 -4 0 -6 21 -5 46 2 35 -1 48 -15 55 -10 5 -18 16 -18 23
0 20 -32 30 -45 14 -13 -18 -64 -40 -75 -33 -11 7 -58 -72 -66 -111 -4 -21 -1
-34 10 -43 24 -20 19 -36 -19 -62 -19 -13 -35 -30 -35 -36 0 -9 -20 -13 -69
-13 l-69 0 8 34 c6 28 3 43 -17 76 l-25 41 -31 -33 c-24 -25 -42 -33 -69 -35
-28 -1 -38 2 -38 13 0 10 -6 13 -17 10 -10 -3 -29 -8 -43 -11 -25 -6 -70 -60
-70 -83 0 -7 -16 -12 -40 -12 -39 0 -40 1 -40 35 0 24 5 35 14 35 15 0 19 10
31 68 4 19 3 32 -4 32 -5 0 -13 17 -16 38 -10 61 -46 132 -67 132 -10 0 -18 7
-18 16 0 9 -9 32 -21 51 -27 43 -68 42 -82 -3 -6 -16 -13 -31 -17 -34 -3 -3
-9 -13 -13 -23 -4 -10 -11 -15 -17 -12 -6 3 -10 -4 -10 -17 0 -13 -7 -36 -15
-52 -26 -49 -19 -156 10 -156 17 0 31 -18 50 -63 l15 -37 -98 0 -99 0 5 50 c3
35 0 56 -10 68 -8 9 -24 37 -36 62 -26 53 -70 80 -88 55 -6 -8 -21 -15 -33
-15 -12 0 -24 -7 -28 -16 -3 -9 -19 -30 -35 -47 -30 -32 -31 -49 -15 -141 1
-6 -15 -12 -37 -14 -34 -3 -38 -1 -31 15 14 34 17 61 7 78 -6 12 -6 27 1 44 8
21 6 36 -8 65 -10 20 -23 35 -30 32 -7 -2 -25 4 -41 15 -16 10 -35 19 -43 19
-8 0 -22 7 -32 16 -27 24 -69 6 -97 -42 -19 -32 -22 -49 -18 -94 3 -30 10 -56
16 -58 8 -3 40 -64 40 -78 0 -2 -20 -4 -44 -4 l-43 0 -6 50 c-7 62 -12 70 -40
70 -13 0 -33 7 -45 16 -12 8 -22 12 -22 7 0 -4 -7 5 -15 21 -9 16 -12 33 -8
37 4 4 73 55 153 113 l144 105 26 -30 c19 -23 35 -31 68 -34 39 -3 42 -2 42
21 0 14 7 27 15 30 9 4 15 19 15 38 0 41 -13 61 -36 52 -12 -4 -6 6 14 24 18
17 45 33 61 36 15 3 35 18 45 32 10 15 47 47 83 72 35 25 88 63 118 86 29 22
95 70 146 105 51 35 111 80 133 100 64 55 102 79 128 79 21 -1 21 -2 -8 -18
-32 -17 -35 -39 -8 -55 8 -4 14 -14 14 -21 0 -22 25 -66 38 -66 10 0 46 -47
55 -73 6 -19 35 7 47 43 7 21 16 38 19 37 3 -1 17 5 31 13 14 8 32 13 42 12
23 -4 29 11 29 73 l0 55 270 0 c232 0 269 -2 269 -15 0 -8 4 -15 9 -15 5 0 11
-8 14 -19 7 -26 48 -17 83 20 26 27 32 29 111 29 74 0 83 -2 83 -18 0 -23 41
-59 72 -64 22 -3 23 -6 20 -74 -2 -54 1 -74 13 -84 8 -7 15 -18 15 -26 0 -16
14 -25 45 -28 19 -3 29 6 50 46 16 29 25 58 22 70 -3 11 -2 31 3 43 12 31 -4
84 -30 102 -30 21 -24 33 18 33 35 0 38 -3 50 -40 6 -22 12 -50 12 -62 1 -31
19 -62 54 -89 25 -20 28 -27 23 -64 -4 -29 -2 -48 8 -61 8 -10 15 -14 15 -9 0
6 4 4 9 -4 12 -19 101 -24 101 -6 0 7 6 15 13 18 9 3 9 13 -3 48 -14 42 -17
44 -60 47 -25 2 -51 8 -57 14 -16 13 -17 50 -2 65 6 6 9 35 7 67 -3 52 -1 56
19 56 12 0 23 -5 25 -11 2 -5 11 -7 21 -4 9 4 14 12 11 17 -15 24 45 31 104
12z m-1528 -8 c0 -8 -4 -18 -10 -21 -5 -3 -10 3 -10 14 0 12 5 21 10 21 6 0
10 -6 10 -14z m-1459 -967 c-12 -11 -21 -26 -21 -34 0 -11 -12 -15 -47 -15
-52 0 -52 -1 27 59 43 32 56 38 58 25 2 -9 -6 -25 -17 -35z m889 -1499 c0 -5
-5 -10 -11 -10 -5 0 -7 5 -4 10 3 6 8 10 11 10 2 0 4 -4 4 -10z m-680 -690 c0
-5 7 -10 15 -10 8 0 15 -3 15 -7 0 -15 -19 -38 -32 -39 -34 -3 -38 -5 -38 -24
0 -22 -22 -27 -38 -7 -8 9 -1 23 26 54 37 42 52 52 52 33z m-770 -774 c0 -3
-4 -8 -10 -11 -5 -3 -10 -1 -10 4 0 6 5 11 10 11 6 0 10 -2 10 -4z"/>
<path d="M5550 5923 c-54 -36 -59 -43 -48 -69 14 -31 -4 -54 -42 -54 -21 0
-29 -6 -34 -25 -4 -14 -4 -30 -1 -35 4 -6 1 -10 -5 -10 -8 0 -9 -11 -5 -32 8
-38 25 -60 32 -40 3 6 15 12 28 12 12 0 28 7 35 15 7 8 19 15 26 15 19 0 18
39 -1 46 -19 8 -19 48 0 64 8 6 23 9 33 6 28 -9 82 38 80 70 -1 13 -8 24 -16
24 -7 0 -11 4 -8 9 3 5 -4 11 -17 15 -29 8 -28 8 -57 -11z"/>
<path d="M3706 5908 c-9 -12 -16 -32 -16 -43 -1 -11 -7 -31 -15 -45 -18 -31
-19 -71 -3 -105 11 -24 12 -24 30 -8 17 15 20 15 29 3 7 -12 15 -9 41 20 27
29 33 43 33 80 0 41 2 45 23 42 18 -3 22 1 22 25 0 41 -17 53 -76 53 -43 0
-56 -4 -68 -22z"/>
<path d="M3898 5905 c-10 -13 -18 -31 -18 -39 0 -8 -4 -17 -9 -21 -6 -3 -13
-27 -17 -53 -4 -26 -13 -56 -20 -67 -20 -28 -17 -48 9 -72 19 -19 31 -21 82
-14 15 1 45 55 45 79 0 10 11 31 25 46 37 39 36 116 -1 145 -36 28 -75 26 -96
-4z"/>
<path d="M6100 5914 c0 -12 -5 -15 -22 -9 -46 15 -113 14 -130 -2 -14 -13 -20
-13 -33 -3 -12 10 -21 8 -50 -14 -28 -21 -35 -34 -35 -60 0 -19 7 -39 15 -46
8 -7 15 -19 15 -27 0 -8 9 -28 20 -43 11 -16 19 -32 18 -37 -6 -22 18 -55 52
-73 l39 -20 12 43 c6 23 15 50 20 59 5 10 9 25 9 35 0 12 8 8 28 -17 31 -36
55 -44 86 -28 15 8 22 7 34 -8 10 -13 16 -15 19 -6 3 6 8 10 13 7 16 -10 39
83 33 138 -6 55 -20 80 -63 110 -32 22 -80 23 -80 1z"/>
<path d="M5673 5863 c-12 -10 -33 -46 -47 -80 -30 -71 -34 -131 -10 -140 8 -3
13 -12 10 -19 -8 -20 10 -26 52 -19 28 4 43 15 60 40 12 19 22 41 22 48 0 8 7
28 16 46 15 31 15 34 -5 55 -12 12 -21 28 -21 34 0 7 -5 12 -11 12 -6 0 -18 9
-28 21 -16 20 -17 20 -38 2z"/>
<path d="M4295 5856 c-78 -29 -105 -69 -105 -151 0 -39 3 -44 36 -60 20 -9 39
-13 43 -9 3 5 21 19 39 32 l32 23 0 -33 c-1 -34 -19 -68 -37 -68 -6 0 -18 -11
-27 -25 -13 -20 -25 -25 -61 -25 -48 0 -63 -14 -86 -79 -10 -29 -9 -35 5 -43
10 -5 16 -19 15 -31 -3 -28 9 -67 22 -67 5 0 9 -9 9 -20 0 -25 2 -25 49 -1 45
24 61 42 64 73 3 28 35 78 51 78 19 0 96 84 96 104 0 10 10 32 22 48 29 41 38
171 13 198 -9 10 -24 16 -35 13 -12 -3 -22 1 -26 11 -3 9 -15 16 -26 16 -11 0
-26 7 -34 15 -17 17 -18 17 -59 1z"/>
<path d="M3198 5826 c-16 -12 -28 -26 -28 -32 0 -5 -22 -30 -50 -54 -27 -25
-50 -48 -50 -51 0 -10 54 -65 70 -71 8 -3 30 7 48 22 25 21 35 38 39 70 4 31
3 41 -5 36 -18 -11 -15 22 5 55 24 40 6 54 -29 25z"/>
<path d="M5213 5773 c4 -21 4 -48 1 -60 -5 -17 -10 -20 -32 -13 -15 4 -47 4
-72 1 -42 -6 -45 -8 -43 -35 1 -16 8 -33 15 -37 10 -6 10 -11 1 -20 -11 -11
-2 -64 14 -80 5 -4 32 -12 60 -17 52 -9 53 -9 67 20 8 16 12 36 9 44 -3 8 0
21 6 28 11 13 17 12 46 0 34 -14 35 -14 41 13 3 16 10 41 15 57 6 19 5 40 -2
61 -10 27 -22 36 -72 54 l-60 21 6 -37z"/>
<path d="M3306 5793 c-4 -5 -12 -8 -18 -8 -18 0 -46 -48 -53 -92 -6 -36 -4
-42 14 -48 24 -7 74 17 95 47 21 29 20 58 -3 86 -21 24 -24 26 -35 15z"/>
<path d="M3670 5665 c-7 -8 -16 -12 -21 -10 -17 11 -38 -42 -44 -110 -10 -101
-8 -114 20 -147 14 -16 25 -33 25 -38 0 -5 6 -15 13 -22 7 -7 24 -32 37 -55
13 -24 27 -43 31 -43 14 0 59 61 65 88 4 15 12 32 18 37 25 22 47 67 52 109 5
36 3 46 -14 58 -11 7 -28 33 -38 56 -11 30 -21 41 -31 38 -8 -3 -29 5 -46 18
-49 35 -54 37 -67 21z"/>
<path d="M4020 5664 c-14 -7 -28 -15 -32 -16 -5 -2 -14 -27 -21 -55 -12 -45
-12 -53 0 -53 8 0 13 -8 11 -17 -3 -17 2 -19 35 -14 36 4 70 107 51 155 -7 19
-11 19 -44 0z"/>
<path d="M5531 5664 c0 -11 3 -14 6 -6 3 7 2 16 -1 19 -3 4 -6 -2 -5 -13z"/>
<path d="M3038 5646 c-12 -11 -18 -12 -27 -3 -10 9 -20 3 -47 -26 -28 -30 -35
-45 -32 -70 2 -26 7 -32 26 -31 12 0 22 -3 22 -8 0 -4 7 -8 15 -8 8 0 15 -6
15 -13 0 -7 11 -23 25 -35 24 -21 26 -21 60 -5 46 22 62 66 38 100 -10 13 -32
44 -49 69 -28 40 -33 43 -46 30z"/>
<path d="M3355 5630 c-11 -4 -43 -30 -71 -58 -57 -55 -80 -117 -50 -134 9 -5
16 -20 16 -33 0 -16 6 -25 15 -25 8 0 15 -6 15 -13 0 -22 75 -88 92 -82 10 4
18 0 20 -10 2 -13 10 -9 39 17 61 56 108 171 75 184 -9 3 -16 12 -16 18 0 24
-25 65 -42 69 -10 3 -27 21 -39 41 -22 39 -24 39 -54 26z"/>
<path d="M5415 5594 c-16 -13 -37 -24 -46 -24 -9 0 -19 -6 -22 -13 -3 -8 -21
-21 -40 -31 -30 -14 -38 -25 -51 -70 -24 -81 -20 -146 8 -146 7 0 18 -11 24
-24 14 -31 57 -60 77 -53 8 4 17 2 20 -4 4 -5 -1 -12 -9 -15 -21 -8 -22 -84
-1 -84 7 0 18 6 22 13 4 8 16 16 26 20 9 3 17 13 17 21 0 7 9 16 20 19 11 3
20 12 20 21 0 9 11 21 24 26 29 11 44 63 25 86 -9 11 -12 41 -10 90 1 48 -1
74 -8 74 -6 0 -11 -4 -11 -10 0 -5 -7 -10 -15 -10 -11 0 -15 11 -15 38 0 21
-4 42 -9 48 -5 5 -11 19 -13 31 l-3 21 -30 -24z"/>
<path d="M4561 5535 c-17 -20 -31 -40 -31 -45 0 -5 -13 -24 -29 -42 -16 -18
-34 -52 -41 -76 -12 -37 -11 -46 6 -77 10 -20 26 -35 36 -35 10 0 18 -7 18
-15 0 -33 32 -12 132 87 32 31 58 62 58 68 0 5 8 10 18 11 10 0 12 3 5 6 -7 2
-13 13 -13 24 0 10 -4 19 -10 19 -5 0 -10 11 -10 24 0 14 -4 28 -10 31 -5 3
-10 15 -10 25 0 16 -5 18 -30 14 -17 -4 -36 -1 -44 5 -11 9 -20 4 -45 -24z"/>
<path d="M4792 5541 c-35 -21 -58 -121 -28 -121 23 0 27 -30 9 -54 -10 -12
-27 -21 -38 -21 -40 0 -61 -99 -27 -132 11 -10 21 -25 24 -33 10 -27 73 -53
111 -46 31 6 37 14 83 109 44 91 49 109 49 169 0 61 -3 71 -28 95 -22 22 -29
25 -36 14 -7 -11 -12 -11 -32 2 -32 20 -71 28 -87 18z"/>
<path d="M5680 5524 c-39 -28 -70 -71 -70 -97 0 -9 10 -25 22 -35 13 -9 40
-35 62 -57 22 -21 46 -40 54 -41 7 -2 22 -10 32 -19 24 -22 57 -12 103 30 l38
35 -22 29 c-12 16 -30 32 -40 34 -11 3 -19 12 -19 21 0 9 -4 16 -10 16 -5 0
-10 23 -10 50 l0 50 -39 0 c-22 0 -45 2 -53 4 -7 2 -29 -7 -48 -20z"/>
<path d="M5996 5504 c-3 -8 -10 -13 -15 -10 -10 7 -21 -26 -21 -64 0 -33 26
-70 50 -70 10 0 27 -13 37 -30 9 -16 25 -30 34 -30 26 0 49 34 49 74 0 30 -6
43 -32 64 -18 15 -44 39 -59 55 -31 31 -35 32 -43 11z"/>
<path d="M3986 5475 c-3 -9 -13 -15 -23 -13 -30 5 -62 -94 -32 -104 7 -2 7
-12 -1 -32 -9 -23 -7 -38 7 -73 10 -23 20 -43 24 -43 3 0 20 16 39 35 19 19
40 35 47 35 7 0 19 10 27 23 18 29 1 141 -21 133 -7 -3 -13 1 -13 9 0 15 -26
45 -40 45 -4 0 -11 -7 -14 -15z"/>
<path d="M5093 5473 c-13 -2 -23 -11 -23 -19 0 -8 -4 -14 -10 -14 -5 0 -10
-18 -10 -41 0 -34 7 -47 39 -80 44 -45 61 -44 81 6 8 19 17 35 22 35 17 0 7
60 -14 84 -25 27 -51 35 -85 29z"/>
<path d="M2846 5438 c-14 -13 -33 -40 -41 -61 -14 -33 -14 -38 0 -43 8 -4 15
-12 15 -20 0 -8 5 -14 11 -14 7 0 9 -10 5 -25 -7 -27 17 -95 33 -95 6 0 11 5
11 10 0 6 9 10 20 10 11 0 20 -7 20 -15 0 -22 38 -95 49 -95 5 0 15 15 21 34
6 19 14 36 18 38 15 6 72 152 72 182 0 44 -51 96 -75 76 -13 -10 -24 -11 -56
-1 -22 7 -43 19 -46 27 -8 20 -28 17 -57 -8z"/>
<path d="M3548 5350 c-21 -13 -70 -85 -85 -125 -6 -16 -10 -52 -9 -80 1 -46 3
-50 26 -51 14 -1 37 7 53 18 15 11 27 17 27 14 0 -3 12 1 26 9 15 7 32 11 39
9 17 -7 33 16 35 51 3 47 1 55 -15 55 -10 0 -15 10 -15 28 0 16 -8 32 -20 40
-11 7 -20 19 -20 27 0 17 -17 19 -42 5z"/>
<path d="M5162 5203 c-19 -13 -27 -14 -46 -3 -28 14 -46 7 -46 -19 0 -10 -7
-38 -16 -62 -34 -94 -36 -229 -3 -229 13 0 58 -51 59 -66 0 -27 64 -23 65 4 1
7 18 37 62 103 31 47 43 92 43 162 0 42 -4 59 -15 63 -8 4 -15 11 -15 18 -1
37 -53 54 -88 29z"/>
<path d="M5561 5186 c-12 -18 -21 -38 -21 -45 0 -6 -6 -11 -13 -11 -7 0 -20
-13 -29 -28 -15 -25 -15 -32 -3 -55 8 -15 14 -31 13 -35 -1 -4 13 -15 29 -25
29 -17 33 -17 66 -1 35 17 54 49 36 60 -17 10 -9 32 14 38 13 3 30 20 40 40
29 61 -10 123 -52 84 -11 -10 -14 -10 -18 0 -9 23 -41 12 -62 -22z"/>
<path d="M3773 5149 c-29 -35 -30 -75 -1 -90 18 -10 24 -8 39 12 23 30 24 55
2 83 l-18 22 -22 -27z"/>
<path d="M4473 5144 c-18 -19 -33 -41 -33 -49 0 -21 -1 -27 -11 -52 -8 -22 -2
-46 20 -83 11 -19 24 -51 43 -110 14 -44 16 -45 54 -42 32 2 47 11 85 52 25
28 50 50 56 50 6 0 20 23 31 50 17 41 19 52 8 56 -8 3 -12 13 -10 22 5 20 -3
33 -33 49 -19 11 -22 9 -33 -16 -8 -21 -18 -28 -36 -28 -29 0 -43 22 -25 40
17 17 14 77 -4 77 -8 0 -15 5 -15 10 0 6 -15 10 -32 9 -24 -1 -42 -11 -65 -35z"/>
<path d="M4887 5123 c-9 -12 -17 -26 -17 -32 0 -6 -10 -19 -21 -30 -19 -18
-21 -27 -15 -78 4 -32 8 -64 8 -70 1 -9 5 -10 14 -3 9 8 15 3 22 -20 6 -17 18
-30 27 -30 13 0 16 -8 14 -37 -5 -56 9 -99 37 -118 24 -15 26 -15 54 13 40 40
47 74 23 114 -17 28 -25 33 -51 30 -35 -2 -41 8 -17 28 21 18 19 26 -17 76
-26 36 -30 49 -21 62 5 9 18 17 27 17 38 0 42 49 7 84 -23 23 -54 21 -74 -6z"/>
<path d="M5486 4971 c-3 -5 -14 -7 -24 -4 -10 2 -26 -5 -36 -16 -11 -12 -25
-21 -32 -21 -13 0 -48 -83 -59 -142 -6 -30 -4 -36 14 -41 16 -4 21 -13 21 -36
0 -17 5 -31 10 -31 6 0 10 -9 10 -19 0 -11 6 -21 13 -24 20 -7 84 42 101 78 9
19 26 35 39 39 26 6 47 43 47 82 0 20 -4 25 -22 22 -16 -2 -24 3 -26 17 -3 11
-11 24 -18 30 -8 5 -15 25 -17 42 -2 32 -10 42 -21 24z"/>
<path d="M4738 4869 c-15 -6 -30 -19 -34 -31 -4 -14 -12 -18 -27 -14 -61 16
-61 -79 0 -119 27 -18 58 -7 68 25 4 11 17 32 31 45 26 26 32 73 12 93 -14 14
-14 14 -50 1z"/>
<path d="M5186 4801 c-9 -57 -7 -69 15 -90 20 -19 24 -19 51 -5 27 14 29 19
24 47 -9 44 -31 74 -59 79 -22 4 -26 1 -31 -31z"/>
<path d="M4410 4758 c-13 -14 -19 -31 -16 -43 3 -11 6 -28 6 -38 0 -15 5 -14
40 9 22 15 40 35 40 45 0 52 -34 65 -70 27z"/>
<path d="M5080 4710 c0 -7 -8 -10 -20 -7 -13 3 -20 0 -20 -9 0 -8 -4 -14 -10
-14 -5 0 -10 -19 -10 -42 0 -24 -7 -52 -15 -62 -16 -21 -17 -21 -33 9 -10 19
-12 18 -24 -12 -11 -26 -17 -30 -26 -21 -9 9 -12 5 -12 -20 0 -50 23 -95 78
-151 52 -53 92 -66 110 -35 5 9 12 15 15 15 19 -3 27 0 27 10 0 5 9 31 21 56
11 25 19 55 16 67 -9 35 -42 121 -49 126 -3 3 -9 22 -13 42 -7 37 -35 75 -35
48z"/>
<path d="M4576 4684 c-3 -9 -6 -25 -6 -35 0 -11 -4 -17 -10 -14 -6 4 -10 -7
-10 -25 0 -18 -4 -29 -10 -25 -5 3 -12 -4 -14 -17 -17 -80 -16 -95 9 -143 28
-57 58 -95 74 -95 6 0 11 -3 11 -8 0 -4 14 -13 31 -21 17 -7 35 -24 41 -37 13
-27 38 -40 38 -19 0 8 4 15 9 15 5 0 15 17 22 37 13 40 31 63 48 63 6 0 11 9
11 19 0 11 5 23 10 26 6 3 10 26 10 51 0 41 -18 83 -46 109 -6 6 -18 22 -27
37 -17 27 -35 32 -48 14 -4 -4 -16 1 -28 13 -11 11 -27 21 -34 21 -8 0 -24 11
-37 25 -27 29 -36 31 -44 9z"/>
<path d="M4800 4666 c0 -8 5 -18 10 -21 6 -3 10 1 10 9 0 8 -4 18 -10 21 -5 3
-10 -1 -10 -9z"/>
<path d="M5283 4590 c-18 -11 -33 -25 -34 -32 -5 -65 -3 -125 5 -135 4 -7 24
-13 42 -13 75 0 157 83 147 148 -5 31 -7 32 -38 26 -22 -4 -37 -1 -48 10 -20
21 -35 20 -74 -4z"/>
<path d="M4330 4562 c-23 -26 -40 -70 -40 -102 0 -38 30 -102 46 -96 11 4 38
-21 45 -43 6 -18 60 68 66 105 4 27 0 35 -31 59 -22 17 -36 36 -36 49 0 21
-17 47 -29 45 -4 0 -13 -8 -21 -17z"/>
<path d="M4145 4379 c-19 -22 -35 -46 -35 -54 0 -8 -6 -15 -14 -15 -14 0 -66
-57 -66 -73 0 -4 -5 -5 -10 -2 -16 10 -38 -19 -45 -59 -4 -20 -12 -36 -19 -36
-8 0 -8 -2 1 -8 6 -4 13 -21 15 -37 2 -17 8 -29 16 -27 7 1 12 -9 12 -27 0
-16 7 -34 16 -42 8 -7 22 -25 30 -41 16 -31 41 -37 51 -12 3 8 12 13 20 10 9
-4 18 5 25 24 5 17 15 30 22 29 27 -3 36 2 36 24 0 17 2 19 10 7 7 -12 13 -10
33 12 14 15 30 43 37 63 8 23 18 35 30 35 22 0 30 19 30 74 0 44 -30 90 -45
67 -12 -20 -23 -11 -31 21 -4 19 -23 49 -45 69 l-39 37 -35 -39z"/>
<path d="M3870 4357 c0 -7 -20 -33 -45 -57 -51 -50 -57 -75 -20 -84 14 -4 25
-13 25 -20 0 -20 26 -27 39 -12 6 7 21 11 34 9 26 -5 61 35 72 85 5 25 3 32
-9 32 -9 0 -16 5 -16 10 0 6 -8 14 -17 17 -10 4 -24 13 -31 20 -17 17 -32 17
-32 0z"/>
<path d="M5151 4304 c-12 -14 -25 -41 -28 -59 -5 -30 -3 -32 20 -32 15 0 37
11 53 28 24 25 26 33 18 56 -13 37 -35 39 -63 7z"/>
<path d="M4896 4301 c-10 -11 -31 -23 -47 -26 -31 -7 -89 -72 -89 -100 0 -9 3
-14 8 -12 4 3 16 -4 26 -14 19 -19 19 -19 -1 -19 -24 0 -38 -15 -47 -52 -7
-32 2 -78 15 -78 14 0 49 -33 49 -47 0 -8 11 -6 34 8 50 29 86 69 86 94 0 23
22 49 33 39 11 -11 45 16 60 48 11 22 14 48 10 76 -5 37 -10 44 -33 49 -15 3
-33 16 -41 29 -15 29 -40 31 -63 5z"/>
<path d="M4406 4249 c-14 -11 -26 -31 -26 -43 0 -12 -6 -31 -14 -41 -13 -18
-13 -48 -1 -111 5 -23 22 -24 69 -5 20 8 32 9 40 1 5 -5 18 -10 27 -10 9 0 22
-7 30 -16 7 -9 21 -13 33 -10 13 3 27 -3 43 -20 21 -23 24 -24 52 -10 51 27
69 137 31 186 -11 14 -20 31 -20 38 0 7 -4 11 -9 7 -5 -3 -12 3 -15 13 -3 10
-20 23 -38 30 -25 9 -37 9 -64 -4 -29 -14 -35 -14 -63 0 -39 20 -43 20 -75 -5z"/>
<path d="M3690 4129 c0 -5 5 -7 10 -4 6 3 10 8 10 11 0 2 -4 4 -10 4 -5 0 -10
-5 -10 -11z"/>
<path d="M3785 4100 c-12 -4 -27 -15 -34 -24 -7 -9 -18 -16 -23 -16 -6 0 -23
-9 -39 -21 -22 -15 -33 -18 -43 -10 -14 12 -44 8 -75 -8 -51 -28 -113 -167
-82 -185 6 -4 11 -16 11 -27 0 -11 7 -22 15 -25 8 -3 17 -14 20 -25 9 -26 16
-24 45 16 14 19 40 44 58 55 18 11 36 30 41 43 10 27 39 53 48 43 4 -3 17 4
31 16 l24 23 -3 -30 c-4 -38 8 -57 31 -50 16 5 18 1 13 -35 -5 -32 -2 -40 10
-40 9 0 18 -8 22 -19 3 -10 14 -26 24 -35 18 -16 21 -16 43 -2 24 16 52 64 61
105 9 39 -33 102 -64 94 -14 -4 -19 0 -19 14 0 10 -12 32 -27 49 -14 17 -31
46 -37 64 -12 37 -21 43 -51 30z"/>
<path d="M4986 4055 c-25 -25 -34 -46 -18 -44 11 0 55 59 49 65 -3 3 -17 -7
-31 -21z"/>
<path d="M4440 3946 c0 -43 3 -56 15 -56 8 0 15 -6 15 -13 0 -8 8 -21 18 -30
17 -16 20 -15 40 6 28 30 28 65 -1 108 -17 25 -31 35 -55 37 l-32 3 0 -55z"/>
<path d="M4255 3954 c-6 -8 -25 -16 -42 -16 -21 -1 -33 -6 -33 -15 0 -7 -7
-16 -15 -19 -8 -4 -15 -19 -15 -35 0 -16 -9 -37 -21 -48 -11 -10 -23 -37 -26
-60 -3 -22 -14 -48 -24 -57 -27 -24 -26 -99 1 -116 11 -7 20 -18 20 -25 0 -20
21 -26 92 -29 37 -2 72 -5 77 -8 5 -4 30 3 55 14 40 17 48 18 52 5 4 -8 12
-15 19 -15 7 0 15 -6 17 -12 4 -10 8 -9 19 2 51 50 63 119 39 208 -6 24 -8 53
-5 65 4 15 3 18 -3 9 -7 -10 -17 -2 -41 34 -17 26 -31 52 -31 57 0 5 -13 7
-30 4 -21 -5 -30 -3 -30 6 0 12 -50 67 -61 67 -2 0 -9 -7 -14 -16z"/>
<path d="M4644 3897 c-60 -32 -87 -76 -89 -145 -1 -31 -6 -69 -10 -85 -5 -17
-3 -32 5 -42 10 -12 25 -3 95 57 89 75 121 123 93 139 -12 7 -15 19 -11 49 4
25 2 40 -5 40 -6 0 -16 2 -24 4 -7 3 -32 -5 -54 -17z"/>
<path d="M3321 3785 c-17 -20 -31 -40 -31 -45 0 -5 -12 -16 -27 -24 -16 -9
-48 -40 -73 -70 -34 -42 -50 -54 -66 -51 -41 9 -68 -78 -41 -136 11 -23 97
-109 110 -109 4 0 26 49 31 70 7 27 47 74 74 85 17 8 32 21 32 29 0 9 5 16 10
16 6 0 10 -4 10 -9 0 -5 14 -16 31 -25 28 -14 32 -14 51 3 11 11 22 36 25 58
4 32 0 43 -26 72 -33 37 -37 46 -21 56 19 12 10 60 -15 88 -14 15 -30 27 -34
27 -5 0 -23 -16 -40 -35z"/>
<path d="M3642 3765 c-36 -30 -46 -73 -30 -124 10 -32 16 -38 38 -36 49 4 78
17 89 41 14 31 14 74 1 74 -5 0 -10 9 -10 19 0 56 -39 68 -88 26z"/>
<path d="M3895 3631 c-3 -2 -5 -13 -5 -23 0 -24 -17 -23 -32 2 -18 29 -44 25
-51 -7 -23 -118 -15 -212 18 -199 8 3 21 -4 29 -16 15 -21 16 -21 35 -3 11 9
23 26 26 36 8 23 21 24 59 4 16 -9 30 -14 32 -12 2 2 4 19 5 38 2 18 7 39 11
46 16 20 -13 93 -46 117 -28 21 -69 29 -81 17z"/>
<path d="M3468 3500 c-75 -79 -87 -113 -63 -175 11 -30 20 -43 25 -35 4 7 12
10 17 7 6 -4 20 5 33 18 22 24 24 24 36 7 18 -26 71 -16 107 20 32 31 56 100
38 106 -6 2 -11 10 -11 17 0 20 -19 28 -34 15 -11 -8 -19 -2 -38 32 -13 24
-30 44 -38 46 -8 1 -41 -25 -72 -58z"/>
<path d="M4171 3462 c-42 -45 -52 -67 -66 -154 -3 -19 0 -28 8 -28 7 0 23 -14
36 -31 l22 -30 27 33 c26 32 81 87 116 116 20 16 21 41 1 48 -8 4 -15 16 -15
28 0 32 -21 55 -55 61 -26 4 -36 -3 -74 -43z"/>
<path d="M3901 3333 c5 -21 9 -42 9 -46 0 -13 44 -25 61 -16 11 5 14 17 11 38
-5 36 -16 46 -59 55 l-31 7 9 -38z"/>
<path d="M3160 3305 c-41 -14 -87 -27 -102 -30 -24 -5 -28 -10 -28 -39 0 -19
8 -40 18 -49 21 -19 42 -22 42 -7 0 6 7 10 16 10 9 0 25 10 36 23 16 17 33 23
86 27 60 4 67 7 70 28 2 13 -2 22 -10 22 -7 0 -19 9 -26 20 -15 24 -10 24
-102 -5z"/>
<path d="M3733 3317 c-18 -7 -42 -22 -55 -34 l-22 -22 55 -58 c29 -32 57 -60
62 -61 15 -7 54 27 71 61 26 56 21 72 -30 101 -26 14 -47 26 -48 25 0 0 -16
-6 -33 -12z"/>
<path d="M2727 3252 c-27 -28 -27 -29 -9 -45 10 -9 28 -17 40 -17 18 0 21 5
18 36 -5 52 -18 59 -49 26z"/>
<path d="M3364 3239 c-3 -6 3 -24 15 -40 11 -15 21 -32 21 -38 0 -27 33 -15
78 29 43 44 47 50 29 56 -10 3 -24 1 -30 -5 -14 -14 -62 -14 -87 -1 -13 7 -21
7 -26 -1z"/>
<path d="M3240 3218 c0 -8 -10 -23 -21 -34 -12 -10 -25 -29 -30 -41 -5 -13
-17 -23 -27 -23 -10 0 -38 -25 -62 -55 -29 -35 -53 -54 -67 -55 -28 0 -53 -36
-53 -76 0 -34 23 -98 32 -89 3 3 20 -8 39 -26 l33 -31 18 22 c10 12 18 31 18
41 0 10 5 19 10 19 6 0 15 11 20 25 5 14 17 25 27 25 23 1 53 23 53 41 1 10 4
9 14 -3 7 -10 20 -18 29 -18 8 0 17 -6 20 -12 3 -8 14 -2 31 17 37 42 35 83
-6 119 -27 24 -30 30 -20 47 22 35 9 70 -40 108 -15 11 -18 11 -18 -1z"/>
<path d="M3524 3162 c-12 -10 -25 -33 -29 -50 -7 -36 11 -105 26 -96 5 3 26 7
46 9 49 5 77 53 55 98 -6 12 -13 30 -16 40 -7 23 -54 22 -82 -1z"/>
<path d="M2727 3141 c-24 -41 -21 -101 6 -101 6 0 19 -7 29 -17 10 -9 18 -11
18 -5 0 6 6 9 13 6 17 -6 57 32 57 55 0 26 -31 60 -57 64 -11 2 -27 8 -35 15
-11 9 -18 6 -31 -17z"/>
<path d="M2690 2965 c-10 -36 -10 -55 -1 -84 6 -22 8 -46 5 -55 -7 -19 10 -48
65 -105 23 -23 41 -46 41 -50 0 -4 10 -7 23 -5 12 1 25 3 29 3 4 1 14 17 22
36 15 34 35 47 37 23 1 -21 38 65 39 89 0 12 -6 28 -14 35 -7 8 -19 31 -27 51
-15 44 -49 79 -56 60 -3 -7 -9 -13 -15 -13 -15 0 -38 -27 -38 -44 0 -24 -18
-28 -29 -7 -6 11 -11 33 -11 50 0 44 -10 61 -35 61 -18 0 -25 -9 -35 -45z"/>
<path d="M3358 2912 c-77 -79 -86 -106 -59 -165 11 -23 20 -36 21 -29 0 6 8
12 17 12 9 0 25 7 35 16 15 14 20 15 34 3 25 -20 58 -16 93 14 42 35 57 78 41
117 -10 24 -15 28 -30 20 -27 -15 -28 -14 -47 30 -10 22 -23 42 -29 44 -7 3
-41 -25 -76 -62z"/>
<path d="M2556 2805 c-3 -8 -13 -15 -23 -15 -14 0 -22 -14 -31 -56 -13 -52
-12 -60 9 -113 13 -31 28 -61 33 -67 16 -17 66 -3 83 22 8 13 22 24 29 24 24
0 28 30 7 58 -17 24 -35 68 -38 97 -4 32 -18 56 -31 51 -8 -3 -14 -1 -14 4 0
16 -17 12 -24 -5z"/>
<path d="M3113 2737 c-13 -13 -23 -28 -23 -34 0 -6 -6 -18 -13 -25 -60 -63
-60 -123 0 -186 7 -7 13 -17 13 -21 0 -17 40 -52 51 -45 9 5 10 1 6 -16 -7
-29 6 -56 32 -63 29 -7 41 12 41 66 0 29 4 46 10 42 6 -4 10 9 10 33 0 45 6
55 30 42 23 -12 44 15 47 60 2 26 -4 43 -23 63 -14 15 -29 25 -34 22 -5 -3
-14 3 -19 14 -6 11 -24 22 -41 26 -17 4 -35 15 -40 26 -13 24 -19 23 -47 -4z"/>
<path d="M2765 2591 c-3 -6 -12 -8 -20 -5 -19 8 -75 -72 -75 -106 0 -14 6 -35
14 -45 13 -18 14 -18 41 3 20 16 32 19 45 12 22 -12 60 -13 78 -2 18 12 26
103 10 123 -16 19 -84 34 -93 20z"/>
<path d="M2394 2539 c-28 -29 -35 -35 -81 -75 -46 -40 -63 -80 -63 -151 0 -31
4 -43 15 -43 11 0 12 -5 5 -26 -12 -30 -13 -101 -2 -106 4 -1 18 -17 30 -35
20 -28 26 -31 60 -26 62 10 123 51 128 87 1 8 18 29 37 47 40 39 76 119 53
119 -16 0 -26 30 -26 84 0 39 -19 65 -49 66 -8 0 -31 18 -52 40 -36 39 -37 39
-55 19z"/>
<path d="M2972 2531 c-8 -5 -13 -23 -11 -42 1 -19 -1 -41 -4 -49 -3 -8 -7 -24
-9 -35 -2 -11 -10 -20 -18 -20 -22 0 -30 -15 -30 -61 0 -44 25 -76 68 -87 20
-5 22 -1 22 30 0 20 4 32 10 28 6 -3 10 5 10 18 0 15 10 31 25 41 29 19 32 50
12 108 -12 35 -43 78 -56 78 -3 0 -12 -4 -19 -9z"/>
<path d="M1880 2385 c0 -8 -13 -24 -29 -36 -16 -12 -32 -33 -36 -47 -3 -13 -8
-22 -11 -19 -9 9 -54 -40 -69 -76 -24 -57 -19 -101 14 -139 15 -18 32 -44 36
-58 4 -14 16 -33 26 -43 13 -12 17 -26 13 -45 -5 -22 -1 -30 19 -41 14 -7 30
-10 36 -7 6 4 13 -4 16 -17 6 -23 23 -32 100 -51 37 -10 65 29 65 90 0 30 -3
35 -12 26 -19 -19 -38 -14 -38 8 0 12 -6 27 -12 34 -11 11 -19 10 -49 -7 -39
-22 -69 -18 -69 10 0 18 32 53 49 53 11 0 31 47 31 74 0 51 13 85 34 92 28 9
65 54 66 81 0 34 -20 70 -47 82 -32 15 -44 14 -57 -5 -11 -14 -15 -11 -37 20
-26 38 -39 45 -39 21z"/>
<path d="M2746 2293 c-41 -43 -56 -68 -56 -94 0 -15 5 -31 10 -34 6 -3 10 -17
10 -31 0 -35 19 -67 36 -60 8 3 14 1 14 -4 0 -5 10 -10 23 -12 17 -2 23 -11
28 -43 3 -22 15 -55 26 -74 20 -31 21 -32 28 -12 3 12 13 21 21 21 8 0 19 12
25 28 5 15 20 47 33 72 36 69 40 105 13 134 -26 30 -71 26 -89 -8 -23 -44 -52
-48 -43 -5 5 20 2 36 -8 47 -8 9 -20 34 -27 55 -13 42 -19 44 -44 20z"/>
<path d="M2176 2204 c-13 -12 -20 -13 -30 -5 -18 15 -46 3 -46 -20 0 -10 -11
-30 -25 -45 -26 -28 -33 -79 -16 -112 5 -9 12 -25 15 -34 3 -10 9 -18 14 -18
15 0 72 59 72 75 0 8 6 18 14 22 24 14 35 48 32 97 -4 56 -8 62 -30 40z"/>
<path d="M2562 2164 c-13 -14 -16 -33 -14 -75 3 -50 102 -101 102 -53 0 8 5
14 10 14 19 0 10 53 -15 85 -27 36 -64 49 -83 29z"/>
<path d="M2508 2008 c-3 -47 4 -83 18 -91 8 -4 14 -14 14 -21 0 -8 6 -19 14
-25 10 -9 15 -7 20 6 33 92 29 127 -17 142 -42 15 -47 14 -49 -11z"/>
<path d="M2395 2000 c-10 -11 -24 -20 -31 -20 -17 0 -44 -39 -44 -65 0 -11
-13 -34 -28 -52 -22 -26 -32 -31 -54 -26 -26 5 -32 15 -31 59 0 14 -56 5 -84
-14 -35 -22 -50 -83 -30 -124 9 -18 21 -46 27 -62 9 -25 14 -28 44 -22 19 4
37 2 40 -3 9 -14 107 12 159 42 51 30 72 58 79 105 4 26 1 32 -13 32 -17 0
-17 3 -5 38 15 42 15 88 0 115 -10 17 -11 16 -29 -3z"/>
<path d="M1795 1806 c-8 -42 1 -76 21 -76 8 0 14 -9 14 -19 0 -37 28 -31 44 9
27 67 9 107 -51 117 -18 3 -23 -2 -28 -31z"/>
<path d="M1810 1610 c-19 -10 -44 -27 -54 -39 -11 -12 -27 -21 -36 -21 -28 0
-48 -32 -45 -75 1 -22 -2 -45 -8 -52 -5 -7 -6 -26 -2 -43 6 -29 9 -31 38 -25
18 4 42 13 54 21 25 16 41 56 24 62 -16 5 -14 47 4 62 8 7 22 9 31 6 18 -7 80
27 87 47 7 23 -4 46 -21 40 -12 -5 -14 -2 -9 11 4 11 3 15 -4 10 -6 -4 -14 -2
-18 4 -4 6 -18 4 -41 -8z"/>
<path d="M2350 1605 c0 -28 -12 -32 -30 -10 -15 17 -89 16 -111 -2 -8 -6 -31
-11 -52 -10 -30 1 -43 -5 -58 -23 -22 -28 -19 -72 6 -100 8 -9 15 -22 15 -29
0 -6 7 -23 16 -36 9 -14 14 -31 11 -39 -7 -18 42 -65 73 -68 22 -3 26 3 35 39
6 23 13 45 18 49 4 4 7 17 7 28 0 18 4 17 26 -11 14 -18 32 -33 40 -33 8 0 14
-5 14 -11 0 -6 13 -1 29 11 26 18 31 19 38 5 24 -43 73 36 73 116 0 46 -4 54
-42 94 -27 27 -55 45 -75 49 -30 5 -33 3 -33 -19z"/>
<path d="M1927 1549 c-10 -6 -32 -40 -48 -76 -32 -72 -39 -133 -14 -133 8 0
15 -9 15 -20 0 -16 7 -20 35 -20 39 0 85 41 85 76 0 12 9 33 21 48 l21 27 -23
34 c-13 19 -29 35 -36 35 -6 0 -15 9 -18 20 -7 23 -12 24 -38 9z"/>
<path d="M1464 1465 c12 -62 3 -73 -62 -71 -31 1 -62 5 -68 9 -8 4 -14 -3 -18
-19 -5 -19 -1 -33 13 -48 22 -23 28 -42 11 -31 -15 9 -12 -47 4 -67 7 -10 33
-21 60 -24 54 -8 75 9 76 62 0 39 22 50 56 27 31 -20 40 -10 50 53 8 55 2 95
-16 105 -15 7 -50 20 -60 21 -3 0 -16 4 -29 9 -22 9 -23 8 -17 -26z"/>
<path d="M1662 1290 c-18 -11 -37 -20 -43 -20 -6 0 -20 -11 -30 -24 -11 -14
-29 -26 -41 -28 -34 -5 -77 -129 -64 -183 4 -16 11 -22 21 -19 8 4 15 1 15 -4
0 -6 15 -26 33 -46 25 -26 39 -34 55 -29 25 6 30 -12 7 -21 -16 -6 -22 -76 -7
-76 21 0 62 27 71 48 6 12 17 22 24 22 8 0 19 11 25 25 6 14 18 25 27 25 19 0
30 46 17 74 -5 12 -8 52 -5 89 4 45 2 67 -5 67 -6 0 -14 -5 -17 -10 -11 -18
-34 8 -28 31 3 11 1 30 -5 42 -6 12 -12 30 -14 39 -3 17 -5 17 -36 -2z"/>
<path d="M817 1245 c-15 -14 -27 -30 -27 -35 0 -6 -15 -27 -34 -47 -18 -21
-41 -55 -50 -76 -15 -36 -14 -41 4 -78 11 -21 27 -39 35 -39 8 0 15 -4 15 -10
0 -32 84 15 120 67 12 18 31 35 42 39 11 3 26 21 34 40 16 39 18 58 4 49 -6
-3 -10 5 -10 18 0 14 -7 38 -15 53 -12 25 -20 28 -51 25 -24 -2 -34 1 -30 8
13 20 -9 11 -37 -14z"/>
<path d="M1025 1224 c-27 -29 -33 -78 -12 -91 35 -21 13 -79 -33 -86 -23 -4
-50 -47 -50 -82 0 -12 9 -30 20 -40 11 -10 22 -25 25 -34 6 -21 93 -53 122
-45 15 4 37 37 74 110 46 93 52 112 52 166 0 55 -3 64 -28 85 -20 17 -30 21
-35 13 -6 -9 -14 -8 -33 4 -44 30 -75 29 -102 0z"/>
<path d="M1905 1195 c-25 -23 -45 -49 -45 -57 0 -26 11 -48 21 -42 5 3 9 -2 9
-10 0 -8 9 -17 20 -21 10 -3 29 -22 40 -41 12 -19 25 -32 29 -30 4 3 20 -3 35
-13 35 -23 62 -17 110 22 l38 32 -19 33 c-10 17 -26 32 -35 32 -10 0 -18 7
-18 15 0 9 -7 18 -15 21 -12 5 -14 16 -9 53 l6 47 -61 1 c-58 0 -63 -2 -106
-42z"/>
<path d="M2241 1193 c-6 -10 -11 -13 -11 -8 -1 19 -29 -40 -30 -62 0 -13 13
-31 31 -45 17 -13 44 -35 59 -50 34 -34 55 -35 74 -5 20 30 6 93 -26 115 -13
9 -36 29 -51 44 -34 33 -33 33 -46 11z"/>
<path d="M1316 1154 c-10 -9 -16 -33 -16 -58 0 -37 5 -48 38 -78 32 -29 41
-33 55 -24 8 7 19 24 22 39 4 15 11 27 16 27 5 0 9 17 9 39 0 30 -5 42 -25 55
-31 20 -79 21 -99 0z"/>
<path d="M3489 1085 c-39 -21 -86 -127 -88 -198 -2 -66 -1 -66 86 -25 23 10
54 20 68 22 35 4 44 15 49 59 4 27 1 39 -9 44 -8 3 -15 15 -15 28 0 13 -7 25
-15 29 -8 3 -20 17 -27 31 -13 29 -14 29 -49 10z"/>
<path d="M3087 1040 c-6 -16 -15 -30 -19 -30 -4 0 -8 -6 -8 -14 0 -8 -7 -16
-15 -20 -8 -3 -15 -16 -15 -30 0 -14 -7 -31 -15 -40 -30 -30 -13 -156 21 -156
16 0 39 -41 49 -87 3 -18 12 -33 20 -33 7 0 23 -15 35 -33 21 -30 26 -32 47
-23 27 13 68 89 59 111 -3 8 4 23 15 34 22 21 38 89 22 100 -6 3 -13 24 -16
46 -7 46 -34 115 -45 114 -21 -3 -32 3 -32 17 0 9 -8 29 -17 45 -25 41 -70 41
-86 -1z"/>
<path d="M2405 947 c-11 -5 -33 -30 -48 -55 -22 -35 -27 -52 -22 -76 18 -83
98 -206 135 -206 10 0 23 -7 30 -15 18 -21 40 -19 40 5 0 11 7 23 15 26 8 4
15 14 15 24 0 10 6 20 14 23 11 5 14 26 14 91 -1 96 -12 127 -47 133 -14 2
-31 9 -39 15 -7 7 -22 12 -33 13 -10 1 -27 8 -36 16 -13 11 -24 12 -38 6z"/>
<path d="M3937 932 c-18 -25 -77 -55 -70 -36 11 30 -9 12 -37 -33 -33 -52 -38
-84 -15 -103 23 -19 19 -30 -25 -71 -51 -48 -54 -87 -9 -132 30 -30 32 -30 45
-11 40 56 59 75 98 93 62 31 92 68 101 125 4 31 3 46 -3 42 -6 -4 -8 9 -5 35
5 32 2 44 -11 51 -9 5 -16 17 -16 27 0 25 -37 34 -53 13z"/>
<path d="M543 918 c-12 -13 -27 -36 -33 -52 -8 -21 -15 -27 -30 -23 -11 3 -20
1 -20 -4 0 -5 -8 -9 -18 -9 -33 0 -72 -59 -80 -120 -9 -71 -3 -114 18 -129 11
-7 20 -21 20 -31 0 -9 10 -25 21 -36 12 -10 25 -29 30 -41 13 -35 56 -29 106
15 23 20 43 46 44 57 4 26 -10 67 -20 60 -5 -2 -17 2 -27 9 -16 12 -23 12 -47
-1 -32 -16 -32 -16 -41 13 -10 32 16 57 61 58 32 1 45 8 70 37 32 35 57 99 34
85 -7 -5 -11 4 -11 26 -1 36 -28 99 -46 105 -5 2 -20 -7 -31 -19z"/>
<path d="M1430 922 c0 -15 -56 -25 -76 -14 -22 12 -41 -5 -49 -44 -4 -16 -14
-45 -23 -64 -32 -71 -24 -190 13 -190 8 0 15 -4 15 -8 0 -5 8 -18 18 -30 9
-11 22 -28 27 -38 13 -21 55 -11 55 14 0 9 23 47 51 85 49 65 51 70 56 147 4
51 2 80 -4 80 -6 0 -16 14 -23 30 -7 17 -16 30 -20 30 -5 0 -15 3 -24 6 -9 3
-16 2 -16 -4z"/>
<path d="M1804 898 c-13 -16 -24 -38 -24 -48 0 -10 -9 -20 -20 -23 -24 -6 -37
-53 -21 -78 6 -10 11 -25 11 -33 0 -41 112 -36 125 5 9 26 -13 51 -36 44 -26
-9 -48 37 -29 60 20 24 49 18 56 -11 9 -36 43 -28 66 17 15 29 16 41 7 67 -13
37 -12 37 -44 16 -21 -14 -26 -14 -30 -2 -9 23 -34 17 -61 -14z"/>
<path d="M3712 886 c-26 -38 -28 -59 -6 -81 15 -15 18 -14 40 6 29 27 30 53 6
84 l-18 23 -22 -32z"/>
<path d="M728 867 c-45 -38 -69 -105 -56 -154 5 -18 13 -33 18 -33 6 0 10 -11
10 -24 0 -14 5 -28 10 -31 6 -4 8 -10 5 -15 -3 -5 2 -24 11 -43 15 -30 20 -34
57 -33 34 0 47 7 81 43 23 23 50 43 61 45 24 4 54 97 34 109 -6 4 -8 12 -5 18
11 17 -4 53 -20 47 -7 -3 -16 -1 -19 4 -11 17 -23 11 -29 -15 -5 -18 -13 -25
-30 -25 -25 0 -43 25 -26 35 6 4 10 21 10 38 0 25 -7 37 -29 50 -38 22 -39 22
-83 -16z"/>
<path d="M2130 887 c-1 -18 -60 -93 -60 -76 -1 17 -39 -61 -40 -80 0 -8 -3
-11 -7 -8 -3 4 -13 -2 -20 -13 -15 -21 -9 -105 7 -115 4 -3 13 -28 20 -55 31
-131 62 -178 98 -152 9 7 29 20 44 30 14 9 28 26 30 37 6 27 -10 85 -22 85 -6
0 -10 6 -10 14 0 8 -7 16 -15 20 -10 3 -15 19 -15 46 0 29 4 40 15 40 9 0 15
10 16 23 0 19 2 17 12 -9 17 -44 40 -64 60 -52 9 5 17 15 17 22 0 8 9 16 20
19 21 5 26 36 14 96 -5 24 -12 31 -30 31 -41 0 -73 22 -91 61 -16 38 -43 60
-43 36z"/>
<path d="M2767 885 c-4 -8 -15 -12 -27 -10 -15 3 -24 -3 -32 -20 -6 -14 -14
-25 -18 -25 -4 0 -15 -15 -23 -33 -14 -29 -14 -47 -4 -141 12 -108 12 -109 39
-112 30 -3 68 34 68 66 0 16 29 50 43 50 4 0 7 -9 7 -20 0 -27 9 -25 48 11 28
26 32 37 32 80 0 27 -4 49 -10 49 -5 0 -18 21 -29 46 -12 27 -29 48 -41 51
-11 3 -20 9 -20 14 0 15 -27 10 -33 -6z"/>
<path d="M940 849 c0 -5 5 -7 10 -4 6 3 10 8 10 11 0 2 -4 4 -10 4 -5 0 -10
-5 -10 -11z"/>
<path d="M1126 831 c-14 -15 -26 -32 -26 -38 0 -6 -6 -16 -14 -22 -20 -17 -25
-57 -12 -94 15 -43 56 -97 74 -97 11 0 13 -9 8 -42 -7 -50 18 -111 47 -116 23
-5 77 53 77 82 0 11 -9 35 -19 52 -16 26 -24 30 -50 26 -37 -5 -40 6 -9 33 15
12 18 20 10 23 -7 2 -12 8 -12 13 0 6 -10 23 -22 39 -19 26 -20 33 -9 56 9 20
15 24 23 16 8 -8 15 -7 24 6 19 24 17 38 -7 61 -33 31 -55 31 -83 2z"/>
<path d="M3576 775 c-3 -8 -12 -15 -20 -15 -8 0 -17 -8 -20 -17 -8 -25 -79
-25 -84 0 -4 21 -3 21 -50 1 -50 -22 -74 -57 -80 -115 -5 -52 15 -99 43 -99 9
0 15 -9 15 -22 1 -27 32 -68 52 -68 8 0 29 16 48 35 18 19 37 32 42 29 4 -3 8
0 8 6 0 6 10 14 23 19 15 6 31 30 50 75 30 74 35 127 12 146 -8 7 -15 19 -15
26 0 19 -16 18 -24 -1z"/>
<path d="M1727 683 c-5 -7 -18 -13 -31 -13 -13 0 -31 -9 -41 -20 -9 -10 -22
-18 -28 -17 -12 2 -55 -105 -56 -139 -1 -12 6 -24 14 -28 8 -3 15 -14 15 -24
0 -19 28 -82 36 -82 21 0 87 46 98 69 9 16 26 31 39 35 13 3 29 19 38 38 19
42 14 71 -11 63 -18 -6 -28 10 -55 95 -7 23 -13 31 -18 23z"/>
<path d="M2971 657 c-6 -6 -11 -17 -11 -24 0 -7 -19 -32 -43 -56 -91 -90 -110
-206 -46 -276 16 -18 29 -37 29 -42 0 -6 4 -8 9 -5 5 4 12 -7 16 -24 4 -16 9
-30 11 -30 13 0 95 76 100 92 4 13 13 17 30 14 20 -4 27 2 43 35 40 83 43 147
8 189 -12 14 -25 26 -30 27 -17 4 -33 19 -50 46 -31 48 -54 66 -66 54z"/>
<path d="M975 588 c-11 -6 -25 -18 -31 -27 -7 -8 -25 -15 -40 -16 -26 0 -29
-4 -32 -37 -3 -29 2 -43 22 -63 38 -38 50 -35 104 28 34 40 43 92 20 115 -15
15 -18 15 -43 0z"/>
<path d="M2322 512 c2 -69 25 -119 80 -174 38 -38 42 -40 52 -23 6 10 21 29
34 41 13 13 20 28 16 38 -4 10 0 18 10 22 19 7 21 52 5 87 -7 16 -19 24 -37
24 -15 0 -45 8 -67 18 -22 10 -52 20 -68 22 -27 3 -27 3 -25 -55z"/>
<path d="M1425 541 c-2 -5 -7 -25 -10 -47 -5 -30 -2 -44 13 -61 17 -20 22 -21
50 -11 26 10 32 18 32 43 0 16 -8 40 -18 51 -18 22 -59 37 -67 25z"/>
<path d="M1920 532 c-33 -5 -68 -38 -75 -72 -8 -35 13 -119 25 -100 4 7 12 10
18 6 5 -3 24 -1 41 5 24 8 34 20 43 52 10 32 10 41 0 45 -7 2 -12 17 -12 32 0
33 -5 38 -40 32z"/>
<path d="M649 481 c-19 -16 -21 -23 -13 -49 9 -31 9 -31 41 -16 32 16 42 35
35 67 -5 22 -34 22 -63 -2z"/>
<path d="M2610 453 c-44 -31 -53 -47 -56 -101 -2 -24 -7 -49 -13 -55 -13 -16
13 -51 33 -44 9 4 16 -3 21 -20 l6 -26 40 43 c35 37 40 48 38 84 -2 23 1 47 5
54 9 15 -14 92 -28 91 -6 0 -27 -12 -46 -26z"/>
<path d="M3280 463 c-1 -24 -18 -35 -38 -24 -18 9 -23 8 -32 -8 -5 -11 -10
-32 -10 -46 0 -39 59 -145 81 -145 15 0 49 44 49 62 0 11 4 17 9 14 13 -9 24
48 16 84 -7 34 -75 90 -75 63z"/>
<path d="M2191 389 c-34 -18 -80 -81 -81 -110 0 -9 7 -20 16 -23 8 -3 13 -9
10 -14 -2 -4 -1 -13 3 -20 9 -15 51 -4 51 14 0 8 5 14 10 14 21 0 48 35 61 77
11 38 10 45 -6 63 -21 23 -20 23 -64 -1z"/>
<path d="M1520 308 l-44 -23 -3 -67 -3 -67 40 -12 c31 -10 43 -10 52 -1 7 7
19 12 28 12 20 1 64 39 79 68 7 13 9 36 6 53 -6 25 -11 30 -33 28 -46 -3 -62
1 -62 16 0 20 -8 19 -60 -7z"/>
<path d="M2774 296 c-5 -12 -17 -20 -27 -18 -29 5 -21 -43 14 -77 17 -17 34
-31 37 -31 4 0 19 17 33 38 31 43 27 64 -17 91 -30 18 -30 18 -40 -3z"/>
<path d="M2352 263 c-35 -17 -62 -58 -62 -93 0 -17 6 -20 38 -20 28 0 46 9 75
35 41 39 44 45 22 45 -12 0 -13 4 -5 19 5 11 10 22 10 25 0 12 -46 5 -78 -11z"/>
<path d="M3086 238 c-17 -23 -22 -83 -8 -92 4 -2 26 1 49 7 30 8 51 8 77 0 35
-11 36 -10 36 15 0 16 -11 37 -25 51 -21 19 -28 21 -40 11 -13 -11 -19 -9 -36
8 -25 28 -34 27 -53 0z"/>
<path d="M2520 167 c-19 -18 -42 -40 -50 -50 -13 -18 -12 -19 33 -13 26 3 67
9 92 12 30 3 45 10 45 20 0 8 -8 14 -18 14 -11 0 -24 11 -30 25 -15 33 -29 31
-72 -8z"/>
<path d="M6104 1832 c-417 -299 -1096 -806 -1534 -1144 -41 -32 -140 -106
-220 -165 -379 -281 -600 -457 -600 -478 0 -14 136 -29 180 -20 13 2 245 4
515 4 269 0 499 0 509 0 25 0 28 5 77 146 42 119 176 393 272 555 88 148 295
455 375 555 61 76 233 257 410 430 62 60 112 115 112 121 0 12 -22 24 -44 24
-7 0 -30 -13 -52 -28z"/>
</g>
</svg>
